<svg width="256" height="256" viewBox="0 0 256 256" fill="none" xmlns="http://www.w3.org/2000/svg">
<rect width="256" height="256" fill="#F9F9F9"/>
<path d="M176.797 217.094C201.261 217.094 221.094 197.261 221.094 172.797C221.094 148.332 201.261 128.5 176.797 128.5C152.332 128.5 132.5 148.332 132.5 172.797C132.5 197.261 152.332 217.094 176.797 217.094Z" fill="#5EDC89"/>
<path opacity="0.25" d="M176.797 128.499C170.264 128.467 163.805 129.88 157.883 132.637C151.961 135.394 146.721 139.427 142.541 144.446C150.938 136.622 162.044 132.362 173.52 132.564C184.996 132.767 195.945 137.416 204.061 145.532C212.177 153.648 216.826 164.597 217.029 176.073C217.231 187.549 212.971 198.655 205.147 207.052C212.228 201.247 217.336 193.39 219.769 184.563C222.201 175.735 221.838 166.371 218.73 157.758C215.622 149.145 209.92 141.707 202.411 136.467C194.902 131.228 185.953 128.444 176.797 128.499V128.499Z" fill="white"/>
<path d="M176.797 128.5C186.385 128.478 195.718 131.589 203.376 137.359V69.4374H43.9067V175.75H132.796C132.796 174.864 132.5 173.683 132.5 172.797C132.5 161.048 137.167 149.781 145.475 141.474C153.782 133.167 165.049 128.5 176.797 128.5V128.5Z" fill="#FFF4E3"/>
<path opacity="0.14" d="M114.781 175.75H132.795C132.795 174.864 132.5 173.683 132.5 172.797C132.497 163.848 135.203 155.109 140.264 147.729C145.325 140.349 152.502 134.674 160.85 131.453H159.078C147.33 131.453 136.063 136.12 127.756 144.427C119.448 152.734 114.781 164.001 114.781 175.75V175.75Z" fill="#000064"/>
<path opacity="0.14" d="M43.9067 69.4374L123.641 130.272L203.376 69.4374V73.8671L114.782 152.125L43.9067 82.7264V69.4374Z" fill="#000064"/>
<path d="M132.5 175.75H43.9067V69.4374H203.376V137.359" stroke="#2E4369" stroke-width="1.35804" stroke-miterlimit="10" stroke-linecap="round" stroke-linejoin="round"/>
<path d="M194.516 163.937L170.891 187.562L159.079 175.75M43.9067 69.4374L123.641 130.272L203.376 69.4374H43.9067Z" stroke="#2E4369" stroke-width="1.35804" stroke-miterlimit="10" stroke-linecap="round" stroke-linejoin="round"/>
<path d="M176.797 217.094C201.261 217.094 221.094 197.261 221.094 172.797C221.094 148.332 201.261 128.5 176.797 128.5C152.332 128.5 132.5 148.332 132.5 172.797C132.5 197.261 152.332 217.094 176.797 217.094Z" fill="#5649CF" stroke="#2E4369" stroke-width="1.35804" stroke-miterlimit="10" stroke-linecap="round" stroke-linejoin="round"/>
</svg>
